<svg viewBox="252 259 520 520" xmlns="http://www.w3.org/2000/svg">
   <path fill="#34495e"
      d="M696.983 316.014c19.463 19.436 38.648 38.651 57.91 57.788 2.404 2.388 3.522 4.902 3.514 8.365-.085 36.156-.051 72.312.02 108.468.007 3.343-.7 6.145-3.233 8.529-30.578 28.77-60.42 58.3-90.372 87.715-48.498 47.629-97.052 95.2-145.59 142.789-5.362 5.256-8.314 5.169-13.919-.337-37.202-36.543-74.354-73.137-111.615-109.62-40.95-40.096-81.985-80.103-123.033-120.098-2.682-2.614-4.014-5.417-4.004-9.232.089-36.156.093-72.312-.003-108.468-.01-3.814 1.265-6.596 3.956-9.23a13952.398 13952.398 0 0062.294-61.387c2.537-2.515 5.188-3.685 8.825-3.672 30.49.115 60.982.133 91.473-.001 4.362-.02 7.516 1.431 10.555 4.478 21.063 21.113 42.248 42.103 63.423 63.104 4.772 4.733 5.205 4.661 9.994-.07 21.567-21.31 43.167-42.587 64.688-63.942 2.413-2.395 4.986-3.515 8.413-3.507 31.157.076 62.316.18 93.471-.08 6.518-.054 9.057 4.828 13.233 8.408M505.688 556.785c.624-4.222-.93-6.605-5.19-8.162-6.576-2.403-12.116-6.736-14.948-13.282-1.972-4.56-4.94-5.457-9.362-5.418-16.331.146-32.665-.05-48.997.046-3.937.023-6.958-1.179-9.756-4.003-11.492-11.603-23.136-23.055-34.753-34.534-5.329-5.265-9.92-12.09-16.31-15.244-6.615-3.266-15.063-.666-22.694-1.068-4.834-.254-8.52.652-12.113 4.836-6.786 7.9-19.382 7.272-26.174-.358-6.765-7.599-5.8-19.432 2.111-25.862 7.925-6.441 20.122-4.864 26.033 3.682 1.872 2.706 3.928 3.617 7.031 3.579 8.832-.11 17.667.087 26.498-.032 3.76-.051 6.598 1.182 9.278 3.888 15.6 15.746 31.394 31.297 46.996 47.04 2.653 2.676 5.354 3.952 9.192 3.903 14.33-.18 28.667-.176 42.996.041 3.988.06 5.659-1.144 6.884-5.14 3.841-12.523 12.977-20.108 25.649-21.53 12.314-1.383 23.452 2.048 29.975 14.265 2.433 4.557 4.264 4.737 8.795 1.77 4.321-2.83 8.828-5.44 12.847-8.655 7.485-5.986 15.614-9.349 25.337-7.88 3.44.52 5.34-1.18 7.201-4.012 5.837-8.874 18.156-10.75 26.356-4.333 7.692 6.02 8.87 18.15 2.47 25.456-6.911 7.89-19.093 8.304-26.767.908-5.693-5.488-15.008-6.338-21.602-1.97-8.474 5.612-16.923 11.262-25.436 16.814-2.05 1.337-3.433 2.832-4.009 5.37-2.484 10.945-9.427 18.206-19.667 22.216-3.25 1.274-3.907 3.113-4.318 6.276-1.93 14.844 1.117 27.574 14.13 36.582.936.648 1.65 1.644 2.395 2.54 1.27 1.528 2.669 2.043 4.792 1.797 8.96-1.04 16.456 3.242 19.392 10.773 3.076 7.89.691 16.318-6.577 21.713-2.527 1.876-3.068 4.017-3.052 6.842.069 11.832-.017 23.666.05 35.498.013 2.247-.616 4.622 1.087 7.517 2.76-2.7 5.175-5.365 7.905-7.654 3.327-2.79 4.533-6.034 4.488-10.433-.21-20.663-.171-41.331-.003-61.996.031-3.844-1.183-6.575-3.93-9.172-6.417-6.066-12.66-12.32-18.828-18.641-2.743-2.812-6.016-5.236-7.832-9.129 2.1-1.834 4.247-3.42 6.036-5.338 2.732-2.93 4.87-2.395 7.46.3 8.896 9.246 17.868 18.423 26.99 27.445 2.717 2.686 3.75 5.536 3.718 9.305-.143 17.164-.083 34.331-.03 51.497.007 2.042-.566 4.335 1.822 6.341L730.05 503.441l-.496-1.203c-5.587 0-11.182.192-16.756-.067-3.802-.177-6.59 1.047-9.276 3.732-16.733 16.733-33.723 33.21-50.342 50.053-4.609 4.671-9.333 8.42-16.01 9.1-2.813.286-4.18 1.794-5.192 4.519-3.87 10.427-15.397 15.093-24.947 10.382-9.373-4.625-12.737-16.07-7.395-25.162 5.518-9.39 17.903-11.9 26.86-4.915 2.965 2.311 5.415 2.37 8.634 1.614 3.262-.768 5.597-2.62 7.88-4.918 18.09-18.202 36.285-36.3 54.355-54.522 2.408-2.43 4.936-3.533 8.37-3.528 9.16.014 18.321-.255 27.481-.45 13.125-.278 11.306 1.98 11.595-11.825.076-3.664-1.154-4.995-4.89-4.934-11.33.186-22.669.227-33.997-.008-4.024-.084-6.846 1.268-9.626 4.072-16.898 17.041-33.946 33.933-50.94 50.88-2.01 2.004-3.893 4.014-7.147 4.003-25.332-.086-50.664-.086-75.997-.125-1.324-.003-3.14.21-3.662-1.05-1.502-3.637-.964-7.62-.323-11.267.523-2.977 3.865-1.866 6.02-1.868 22-.02 43.999-.003 65.997.177 3.755.031 6.55-.943 9.273-3.69 16.893-17.043 34.014-33.86 50.928-50.883 2.807-2.825 5.72-4.014 9.704-3.952 13.163.205 26.333-.038 39.496.152 3.925.056 5.413-1.259 5.203-5.179-.23-4.32-.353-8.694.06-12.988.503-5.2-1.565-6.434-6.527-6.405-35.164.2-70.33.154-105.495.062-3.617-.009-6.034.775-8.226 4.073-5.551 8.35-17.931 9.735-25.63 3.332-7.957-6.617-8.586-18.799-1.356-26.23 7.086-7.282 20.205-7.315 26.214.608 3.015 3.976 6.272 4.867 10.671 4.503 17.138-1.417 34.291.258 51.453-.22 17.966-.5 35.965.076 53.948.35 3.798.057 4.94-1.488 4.87-5.05-.149-7.662-.013-15.33-.03-22.997-.016-6.647-.039-6.666-6.693-6.664-29.498.01-58.997.095-88.496-.02-4.608-.019-7.852.918-10.934 4.97-6.257 8.228-18.593 8.565-25.666 1.475-7.363-7.383-7.113-19.573.542-26.35 7.434-6.58 19.93-5.684 25.848 2.266 2.101 2.823 4.313 3.591 7.542 3.583 26.5-.065 52.998-.009 79.497-.03 1.408 0 2.997.54 4.613-1.194-5.55-5.5-11.176-10.874-16.54-16.498-2.157-2.26-4.458-3.099-7.492-3.094-31.832.05-63.664.037-95.496-.036-2.878-.007-5.04.896-7.079 2.935-7.779 7.773-15.614 15.494-23.602 23.051-2.651 2.509-3.607 5.197-3.582 8.807.141 19.998.058 39.998.072 59.997.002 2.521-.019 4.876-2.071 6.896-10.334 10.17-20.567 20.441-30.843 30.67-1.08 1.075-2.163 2.177-3.872 1.003-3.107-2.133-6.238-4.23-9.471-6.418 1.084-2.516 2.948-3.964 4.573-5.574 8.168-8.094 16.293-16.233 24.602-24.18 2.497-2.387 3.496-4.903 3.475-8.337-.118-19.665.074-39.332-.13-58.996-.048-4.572 1.425-7.825 4.67-10.939 9.616-9.23 19.13-18.58 28.378-28.177 3.547-3.682 7.327-5.063 12.357-5.035 26.998.148 53.998.041 80.997-.023 1.827-.004 3.808.488 6.118-.965-3.22-3.091-6.365-5.63-8.908-8.672-3.063-3.665-6.59-4.803-11.326-4.766-26.497.207-52.997.139-79.496.024-3.417-.015-5.968.906-8.397 3.37-10.879 11.038-21.836 22.001-32.96 32.79-2.998 2.909-4.252 5.947-4.213 10.108.205 21.831.1 43.665.304 65.496.037 3.989-1.133 6.945-3.99 9.712-8.261 7.998-16.32 16.205-24.437 24.35-1.053 1.057-2.715 2.158-2.842 3.37-.461 4.394-3.237 4.346-6.362 3.84-2.943-.474-6.022 1.107-8.808-1.878-6.818-7.306-13.574-14.815-21.281-21.106-9.254-7.555-13.547-16.423-11.58-28.205 1.572-9.423-1.569-16.684-9.22-22.486-2.63-1.995-4.52-3.013-7.923-2.114-10.15 2.682-19.67-3.95-21.645-14.636-1.666-9.016 5.29-18.708 14.512-20.22 10.747-1.764 20.579 4.963 20.654 15.613.048 6.745 2.946 10.787 7.313 14.775 2.213 2.021 4.157 4.346 6.433 6.287 3.2 2.73 4.287 6.102 4.195 10.197-.146 6.496.042 13-.05 19.498-.04 2.884.96 5.103 3.061 7.05 3.908 3.622 7.686 7.384 11.536 11.069 1.055 1.009 2.007 2.316 3.828 1.77 1.69-1.618 1.151-3.737 1.159-5.666.056-15.165-.063-30.333.13-45.497.052-3.98-1.146-6.866-3.99-9.665a11444.749 11444.749 0 01-64.932-64.456c-2.464-2.464-5.048-3.37-8.436-3.33-22.493.267-44.987.387-67.48.607-1.732.017-3.602-.36-5.626 1.054 4.479 3.814 8.786 7.447 13.05 11.13 1.862 1.608 3.757 1.557 6.031.853 6.973-2.157 13.29-.7 18.349 4.56 5.187 5.394 6.512 11.905 3.866 18.941-.936 2.49-.571 4.344.804 6.492 3.771 5.892 7.308 11.934 10.997 17.88 4.87 7.852 4.806 7.684-3.225 12.342-3.254 1.887-4.891 1.358-6.686-1.83-3.921-6.967-8.193-13.735-12.288-20.604-1.067-1.79-2.103-2.98-4.638-2.93-12.263.248-19.76-7.301-19.287-19.506.1-2.602-.864-4.076-2.594-5.48-6.598-5.355-13.21-10.694-19.81-16.047-1.202-.976-2.5-2.086-3.926-.629-7.646 7.814-15.225 15.692-23.381 24.12 2.023 1.827 4.086 3.736 6.2 5.59 7.088 6.217 12.864 13.497 17.445 21.712 1.384 2.482 3.062 3.738 6.053 4.369 7.273 1.532 12.18 6.181 13.707 13.597 1.512 7.346-.782 13.666-6.938 18.03-5.847 4.146-12.272 4.932-18.863 1.49-9.187-4.796-12.063-15.61-6.782-25.354.9-1.661 2.436-3 .968-5.38-5.832-9.453-13.52-17.19-20.872-24.043l-19.569 18.739c1.375 2.556 3.66 4.294 5.662 6.266 5.698 5.614 11.382 11.245 17.218 16.713 3.145 2.948 4.587 6.293 4.39 10.639-.247 5.489.015 10.998-.095 16.496-.198 9.925 1.412 8.57-9.613 10.028-3.151.416-4.698-.796-4.635-4.097.085-4.498-.548-9.082.107-13.483 1.869-12.56-8.748-16.397-15.14-23.308-.66 1.915-.804 3.553-.805 5.19-.014 25.166-.019 50.332-.003 75.497.004 6.918.142 7.053 6.914 7.057 21.833.013 43.665.063 65.497-.048 4.286-.022 7.67 1.142 10.626 4.377 4.042 4.425 8.445 8.52 12.7 12.75 18.441 18.325 36.867 36.667 55.361 54.939 1.642 1.622 2.912 4.425 6.125 3.18 3.033-1.177 3.483-3.684 3.445-6.534-.015-1.138.264-2.315.599-3.417 2.817-9.288 12.434-14.518 21.765-11.878 9.613 2.72 15.203 12.44 12.544 21.814-2.848 10.04-12.358 15.304-22.743 12.665-1.646-.418-3.193-1.884-5.492-.591 1.318 3.053 3.72 5.198 6.049 7.15 4.487 3.76 5.859 8.27 5.787 14.064-.262 21.329-.07 42.663-.02 63.995.005 1.806-.542 3.921.793 5.319 5.203 5.445 10.576 10.73 16.948 17.143 0-17.213-.104-32.693.061-48.17.052-4.896-.77-8.633-5.06-12.054-6.848-5.46-7.517-15.702-2.556-23.126 4.769-7.136 14.107-9.706 22.105-6.085 12.191 5.52 14.094 21.145 3.55 30.089-2.255 1.913-3.952 3.582-3.93 6.922.147 20.831.074 41.664.078 62.497 0 1.67-.007 3.337 1.213 4.714 3.5 3.946 6.98 7.911 10.467 11.869l1.826-1.186c0-50.248 0-100.497-.003-151.676m-59.713 50.725c-.081-7.343.58-14.087-6.005-20.405-27.988-26.85-55.274-54.432-82.736-81.826-2.351-2.345-4.87-3.084-8.036-3.067-16.151.087-32.303.03-48.455.082-1.575.005-3.327-.518-3.523-.268l37.275 39.264c-.4-1.37-.61-1.972-.752-2.59-2.535-11.03 3.49-21.128 13.637-22.865 11.041-1.891 20.71 4.742 21.26 16.306.318 6.644 3.67 10.207 7.646 14.129 16.595 16.367 33.153 32.771 49.814 49.071 2.946 2.883 4.332 6.028 4.203 10.185-.22 7.154.659 14.408-.22 21.459-1.55 12.433 8.766 15.998 14.575 22.962l1.317-.56V607.51m73.362 40.99v59.496l2.144 1.085c4.133-4.523 8.16-9.15 12.448-13.522 2.038-2.078 2.818-4.26 2.805-7.116-.08-17.66-.108-35.321.04-52.98.026-3.19-.992-5.127-3.596-6.995-5.776-4.143-9.555-9.963-7.62-17.118 1.684-6.228-1.338-9.13-6.22-12.988V648.5m-115.031-55.307c-13.897-13.662-27.79-27.328-41.696-40.982-1.286-1.263-2.491-2.937-4.67-2.066-4.394 1.755-8.937 1.256-14.704.505l72.075 70.627c1.125-9.46 2.352-17.181-5.545-22.666-1.884-1.31-3.324-3.256-5.46-5.418M536.81 400.5v-24.111c-6.964 4.925-11.372 10.587-16.286 15.712-1.236 1.289-1.154 3.055-1.153 4.733.006 15.141-.01 30.283.028 45.424.004 1.76-.347 3.725 2.086 5.292 4.178-2.92 7.614-6.955 11.557-10.396 2.732-2.384 3.891-5.052 3.814-8.7-.188-8.981-.053-17.969-.046-27.954m75.79 31.791c2.444-1.453 4.136-3.403 3.61-6.44-.36-2.067-1.571-3.702-3.663-4.319-2.128-.626-4.353-.752-6.016 1.059-1.639 1.783-2.515 3.863-1.432 6.35 1.322 3.035 3.642 4.103 7.5 3.35M479.426 611.032c1.042 3.321 3.338 5.01 6.753 4.458 2.435-.395 4.228-1.98 4.493-4.66.344-3.473-1.128-6.046-4.633-6.515-4.222-.566-6.562 1.629-6.613 6.717M385.68 352.45c-1.11-5.146-4.465-7.404-8.154-5.425-2.445 1.31-3.563 3.46-3.132 6.184.406 2.566 2.133 4.11 4.656 4.466 3.453.487 5.73-1.015 6.63-5.225m242.5 21.026c-3.534-1.825-6.072-.614-7.857 2.653-1.543 2.824-.597 5.154 1.716 7.023 2.267 1.832 4.812 1.763 6.809-.16 2.994-2.884 2.975-6.085-.669-9.516m-15.061 184.891c-4.047 2.982-5.012 6.086-2.629 8.94 1.728 2.07 3.93 3.05 6.572 1.719 2.6-1.31 4.195-3.42 3.462-6.397-.82-3.328-3.191-4.838-7.405-4.262m-66.47 50.764c-3.757-2.394-6.65-1.42-8.509 2.442-1.776 3.69.181 5.995 3.363 7.542 2.255 1.097 4.363.328 5.828-1.405 2.211-2.616 2.001-5.45-.682-8.579M338.473 407.258c3.875-.56 6.177-2.613 5.61-6.702-.414-2.978-2.586-4.848-5.494-4.884-2.645-.032-4.783 1.506-5.279 4.392-.624 3.635.654 6.198 5.163 7.194m-16.717 55.619c-1.805-1.124-3.659-1.518-5.55-.24-3.062 2.068-4.04 4.977-2.155 8.099 1.738 2.88 4.531 3.741 7.643 1.73 3.404-2.2 3.58-5.085.062-9.59m131.004-76.418c2.928-1.582 4.722-3.818 3.345-7.246-1.087-2.705-3.301-4.315-6.292-3.646-3.116.696-4.87 2.924-4.45 6.196.486 3.79 2.906 5.35 7.397 4.696m-96.167 148.528c.488-2.958-.428-5.21-3.176-6.662-1.819-.961-3.513-.93-5.14.308-1.975 1.503-3.287 3.422-2.775 6 .458 2.314 2.055 3.93 4.309 4.4 2.928.612 5.176-.661 6.782-4.046m256.198-40.558c-1.08-5.009-4.216-7.188-7.75-5.283-2.353 1.27-3.89 3.316-3.454 6.048.388 2.433 1.988 4.225 4.613 4.536 3.447.41 5.753-1.018 6.591-5.301m-151.023 59.184c-2.782-.822-5.335-.582-7.064 2.013-1.131 1.699-1.723 3.584-.452 5.584 1.237 1.947 2.93 3.293 5.237 3.29 2.33-.001 4.168-1.26 4.975-3.484.997-2.745.551-5.233-2.696-7.403z"
      style="mix-blend-mode:normal" />
   <path fill="#34495e"
      d="M407.884 458.116c9.315 9.314 18.439 18.321 27.402 27.485 2.275 2.326 4.658 3.39 7.915 3.29 6.154-.188 12.328.16 18.475-.13 3.95-.185 5.943 1.219 6.225 5.14.132 1.824.25 3.665.606 5.451.538 2.709-.705 3.71-3.183 3.712-9.822.007-19.645 0-29.467 0-2.558 0-4.328-1.49-6.01-3.16-17.607-17.473-35.147-35.014-52.883-52.355-3.534-3.455-4.033-7.45-3.934-11.838.072-3.148-.575-5.483-3.57-7.528-8.766-5.987-10.127-18.133-3.382-26.408 6.177-7.577 18.578-8.16 25.943-1.219 7.283 6.864 7.025 19.17-.553 26.38-5.996 5.705-6.033 8.841-.13 14.735 5.42 5.41 10.862 10.798 16.546 16.445m-22.447-45.354c-.98-3.183-2.987-5.337-6.448-4.984-2.646.27-4.6 1.913-4.783 4.88-.18 2.923.703 5.403 3.841 6.103 4.274.953 6.566-1.243 7.39-5.999z" />
   <path fill="#34495e"
      d="M461.541 461.458c-2.357-2.378-4.625-4.372-6.539-6.661-4.39-5.255-8.865-8.474-16.75-7.625-9.876 1.064-17.774-8.116-17.276-17.805.527-10.25 9.452-18.372 19.26-17.526 10.405.898 18.17 10.256 16.488 20.376-.52 3.13.515 5.059 2.494 7.037a9878.567 9878.567 0 0132.046 32.179c1.362 1.374 3.171 2.482 3.535 5.013-2.943 1.925-6 3.846-8.97 5.892-2.403 1.654-3.634-.131-5.025-1.527-6.342-6.363-12.676-12.735-19.263-19.353m-19.357-36.275c-2.826-1.59-5.462-1.481-7.441 1.27-1.556 2.164-2.023 4.606-.089 6.857 2.096 2.44 4.773 3.29 7.463 1.268 3.419-2.57 3.544-5.725.067-9.395z" />
   <ellipse cx="511.741" cy="519.181" rx="22.433" ry="22.988" fill="#d35400" />
</svg>