<svg version="1.1" id="Layer_1" xmlns="http://www.w3.org/2000/svg" xmlns:xlink="http://www.w3.org/1999/xlink" x="0px" y="0px"
	 width="100%" viewBox="0 0 1024 1024" enable-background="new 0 0 1024 1024" xml:space="preserve">
<path fill="#000000" opacity="1.000000" stroke="none" 
	d="
M696.982910,316.013519 
	C716.445801,335.450500 735.630798,354.664978 754.893127,373.801575 
	C757.297180,376.189941 758.415344,378.704010 758.407166,382.167114 
	C758.321838,418.322937 758.355713,454.479156 758.427429,490.635132 
	C758.434021,493.978485 757.727600,496.779999 755.194092,499.163666 
	C724.615784,527.933350 694.774902,557.463257 664.822449,586.878967 
	C616.324341,634.507996 567.769653,682.079407 519.231445,729.667603 
	C513.870056,734.924194 510.917999,734.836731 505.313293,729.331360 
	C468.110779,692.788391 430.958740,656.193970 393.698059,619.710510 
	C352.748566,579.615234 311.712585,539.608154 270.665466,499.612762 
	C267.983459,496.999451 266.651367,494.196198 266.660736,490.380707 
	C266.749695,454.224854 266.753662,418.068634 266.658173,381.912811 
	C266.648102,378.099365 267.923401,375.317413 270.613953,372.683197 
	C291.445007,352.288605 312.205170,331.821259 332.907990,311.296478 
	C335.445221,308.781097 338.096375,307.610596 341.732788,307.624359 
	C372.223450,307.739380 402.714996,307.756927 433.205505,307.622803 
	C437.568451,307.603607 440.721527,309.054443 443.761261,312.101318 
	C464.824158,333.213654 486.009186,354.204285 507.183563,375.205200 
	C511.955963,379.938477 512.388977,379.865967 517.177673,375.134521 
	C538.744934,353.825165 560.344543,332.548370 581.865784,311.192688 
	C584.278687,308.798309 586.852173,307.677948 590.278687,307.686249 
	C621.436035,307.761658 652.594849,307.865723 683.750244,307.606476 
	C690.267578,307.552246 692.806702,312.433807 696.982910,316.013519 
M505.688416,556.784973 
	C506.311920,552.562805 504.758240,550.179565 500.498474,548.623169 
	C493.921906,546.220154 488.382111,541.887390 485.550476,535.341248 
	C483.578033,530.781372 480.609619,529.883667 476.188019,529.923218 
	C459.856903,530.069275 443.522919,529.872314 427.191010,529.968567 
	C423.254089,529.991760 420.233002,528.790466 417.435303,525.965881 
	C405.943115,514.363220 394.298553,502.911224 382.681763,491.432434 
	C377.353058,486.167023 372.761505,479.342377 366.372650,476.187897 
	C359.757446,472.921692 351.309387,475.522125 343.677856,475.120270 
	C338.843750,474.865723 335.158783,475.772461 331.565430,479.956024 
	C324.779266,487.856873 312.183105,487.227661 305.390686,479.597992 
	C298.625610,471.999176 299.591797,460.165771 307.502258,453.736176 
	C315.427216,447.294769 327.623596,448.872345 333.535309,457.418213 
	C335.407166,460.124054 337.463165,461.035095 340.566498,460.996765 
	C349.397858,460.887726 358.233154,461.084076 367.064209,460.964600 
	C370.824585,460.913727 373.662109,462.147095 376.342407,464.852753 
	C391.941101,480.598633 407.735901,496.150208 423.338135,511.892609 
	C425.990540,514.568787 428.692169,515.844788 432.530121,515.796387 
	C446.860474,515.615662 461.196594,515.619812 475.526276,515.837280 
	C479.514282,515.897766 481.184784,514.692627 482.410156,510.697693 
	C486.251495,498.173859 495.387421,490.588501 508.058716,489.166382 
	C520.373291,487.784302 531.510986,491.215485 538.033569,503.431854 
	C540.466736,507.989075 542.297729,508.168945 546.828613,505.202240 
	C551.150146,502.372498 555.656738,499.761902 559.676025,496.547424 
	C567.160950,490.561249 575.289978,487.198364 585.012512,488.667358 
	C588.453918,489.187347 590.352173,487.486450 592.214233,484.655457 
	C598.051270,475.781219 610.369568,473.905304 618.570496,480.322449 
	C626.262268,486.341187 627.439148,498.472168 621.040100,505.778015 
	C614.128723,513.668762 601.946716,514.082031 594.273438,506.685974 
	C588.580261,501.198486 579.265015,500.347961 572.670898,504.715759 
	C564.197388,510.328430 555.748169,515.978333 547.235229,521.530457 
	C545.185669,522.867188 543.802002,524.361572 543.226013,526.899597 
	C540.742065,537.845276 533.798767,545.105835 523.559448,549.116272 
	C520.308655,550.389526 519.652283,552.229431 519.241089,555.391602 
	C517.310913,570.235657 520.357910,582.965637 533.370117,591.973694 
	C534.307251,592.622375 535.021667,593.618347 535.766052,594.514038 
	C537.036194,596.042297 538.434753,596.556946 540.558167,596.310608 
	C549.518555,595.271301 557.013794,599.553467 559.949951,607.084351 
	C563.026367,614.974731 560.641357,623.401550 553.372925,628.797180 
	C550.846497,630.672607 550.304993,632.813904 550.321289,635.638733 
	C550.389587,647.471191 550.304138,659.304565 550.371460,671.137024 
	C550.384216,673.384399 549.755249,675.758667 551.457886,678.654114 
	C554.217896,675.954468 556.632507,673.288818 559.362854,670.999756 
	C562.690002,668.210327 563.896240,664.966125 563.851379,660.567139 
	C563.640625,639.903503 563.679749,619.235840 563.847778,598.571289 
	C563.878967,594.726746 562.665344,591.996216 559.917664,589.398926 
	C553.500793,583.333496 547.257568,577.078552 541.090149,570.757690 
	C538.347290,567.946472 535.074463,565.522400 533.258179,561.629089 
	C535.358643,559.794922 537.504700,558.209717 539.293701,556.291443 
	C542.026184,553.361450 544.163269,553.896057 546.754761,556.590149 
	C555.649658,565.837341 564.622314,575.013733 573.744507,584.035950 
	C576.460815,586.722473 577.493958,589.571960 577.462402,593.340698 
	C577.318970,610.505371 577.379333,627.671997 577.432312,644.837769 
	C577.438660,646.879883 576.866272,649.172913 579.253662,651.179199 
	C629.550842,601.902222 679.800598,552.671814 730.050354,503.441437 
	C729.884827,503.040161 729.719238,502.638916 729.553711,502.237640 
	C723.967285,502.237640 718.371948,502.430389 712.797668,502.170685 
	C708.996338,501.993622 706.207764,503.217987 703.522217,505.903381 
	C686.789246,522.635742 669.798767,539.112305 653.179871,555.956116 
	C648.571472,560.626953 643.847351,564.375854 637.170227,565.055847 
	C634.357483,565.342407 632.989258,566.850281 631.978149,569.574524 
	C628.108215,580.001770 616.580627,584.667542 607.031433,579.956726 
	C597.657532,575.332458 594.293701,563.887024 599.636230,554.794861 
	C605.154297,545.404114 617.539429,542.895508 626.496216,549.879639 
	C629.460571,552.191101 631.910522,552.250854 635.129578,551.493652 
	C638.391785,550.726318 640.726501,548.874573 643.010864,546.576111 
	C661.100891,528.374146 679.294800,510.275421 697.364807,492.053650 
	C699.773315,489.624908 702.301453,488.520508 705.734375,488.525879 
	C714.894836,488.540161 724.056274,488.270660 733.216492,488.076263 
	C746.341370,487.797668 744.522461,490.056030 744.810730,476.250549 
	C744.887268,472.587402 743.657349,471.255585 739.920410,471.317047 
	C728.590576,471.503418 717.252441,471.544434 705.924500,471.309021 
	C701.899719,471.225403 699.078247,472.577240 696.297668,475.381287 
	C679.399597,492.421997 662.352112,509.314484 645.358826,526.260742 
	C643.348755,528.265259 641.465454,530.275452 638.210938,530.264404 
	C612.878906,530.178223 587.546570,530.178162 562.214355,530.138550 
	C560.889709,530.136475 559.073608,530.349487 558.552490,529.088135 
	C557.050049,525.451843 557.587585,521.469055 558.228516,517.821777 
	C558.751648,514.844666 562.093567,515.955933 564.249512,515.954041 
	C586.248474,515.934753 608.248047,515.951416 630.246033,516.131287 
	C634.000793,516.161987 636.796936,515.188049 639.518860,512.441772 
	C656.411682,495.398102 673.532654,478.580566 690.446899,461.557892 
	C693.254272,458.732605 696.166870,457.544189 700.151001,457.606201 
	C713.314026,457.811005 726.483765,457.568359 739.647278,457.757629 
	C743.571716,457.814026 745.059570,456.499207 744.849976,452.579315 
	C744.619080,448.259155 744.496582,443.885071 744.910828,439.590820 
	C745.412537,434.390411 743.344971,433.157349 738.383179,433.185699 
	C703.218994,433.386597 668.052979,433.339996 632.887878,433.248444 
	C629.271118,433.239014 626.853516,434.023041 624.661804,437.320587 
	C619.111023,445.671753 606.730713,447.056091 599.031921,440.653229 
	C591.075134,434.035736 590.445679,421.854401 597.676392,414.423126 
	C604.762268,407.140717 617.880920,407.108490 623.890076,415.031097 
	C626.905457,419.006683 630.161804,419.898163 634.561340,419.534363 
	C651.699280,418.117249 668.852417,419.791809 686.014221,419.313934 
	C703.980347,418.813721 721.979492,419.390411 739.961670,419.663239 
	C743.759949,419.720825 744.901489,418.176422 744.832153,414.614929 
	C744.682983,406.951630 744.819397,399.283081 744.801575,391.616791 
	C744.786133,384.969788 744.763367,384.950897 738.109436,384.952972 
	C708.610596,384.962158 679.111511,385.048157 649.613159,384.932281 
	C645.004578,384.914215 641.760559,385.850952 638.678650,389.903473 
	C632.421936,398.130615 620.085632,398.468323 613.013062,391.377502 
	C605.649658,383.995056 605.900269,371.804596 613.554749,365.028748 
	C620.989014,358.447845 633.485779,359.343994 639.402710,367.293732 
	C641.504272,370.117188 643.716431,370.885406 646.945312,370.877411 
	C673.444092,370.811737 699.943176,370.868103 726.442139,370.847443 
	C727.849609,370.846344 729.439148,371.386414 731.054688,369.652985 
	C725.505920,364.152100 719.879211,358.778625 714.514404,353.155304 
	C712.357605,350.894592 710.057373,350.056427 707.023071,350.061188 
	C675.191101,350.111298 643.358948,350.098022 611.526978,350.025085 
	C608.649353,350.018494 606.487915,350.921326 604.448181,352.959595 
	C596.669495,360.732910 588.833984,368.453705 580.846375,376.010956 
	C578.194885,378.519562 577.239075,381.208160 577.264404,384.817963 
	C577.404968,404.816193 577.322083,424.815979 577.336243,444.815216 
	C577.338013,447.336395 577.317383,449.690582 575.264709,451.710663 
	C564.930969,461.880341 554.698059,472.152405 544.422058,482.380798 
	C543.342224,483.455658 542.258606,484.557922 540.549561,483.384125 
	C537.443359,481.250671 534.311768,479.154144 531.078796,476.966461 
	C532.163208,474.449738 534.027344,473.001801 535.651978,471.391815 
	C543.819580,463.297943 551.944824,455.158600 560.254089,447.212097 
	C562.750610,444.824554 563.749634,442.309326 563.729065,438.875366 
	C563.611145,419.210205 563.802856,399.542603 563.598511,379.878876 
	C563.550964,375.307404 565.023804,372.054016 568.268311,368.940063 
	C577.885498,359.710022 587.399048,350.360596 596.646790,340.762756 
	C600.193848,337.081451 603.974304,335.700256 609.004395,335.727936 
	C636.002441,335.876373 663.001831,335.769135 690.000732,335.705048 
	C691.828125,335.700714 693.809326,336.193390 696.118958,334.739532 
	C692.898376,331.649048 689.753784,329.110229 687.211121,326.068298 
	C684.147644,322.403473 680.621338,321.264618 675.885071,321.301666 
	C649.387695,321.508881 622.887695,321.440704 596.389099,321.325775 
	C592.971985,321.310974 590.421387,322.232239 587.992065,324.696869 
	C577.113159,335.733673 566.155945,346.697083 555.032288,357.486328 
	C552.033691,360.394806 550.779846,363.433411 550.818909,367.594360 
	C551.023804,389.425232 550.919373,411.259064 551.123047,433.089966 
	C551.160278,437.078735 549.990479,440.034729 547.132141,442.802002 
	C538.871521,450.799713 530.813232,459.006531 522.696106,467.151825 
	C521.642761,468.208771 519.980957,469.310120 519.853760,470.522400 
	C519.392517,474.915833 516.617493,474.867767 513.491699,474.362915 
	C510.549347,473.887665 507.469696,475.469269 504.683594,472.483612 
	C497.866302,465.177979 491.110321,457.669464 483.403015,451.377655 
	C474.148926,443.823059 469.855988,434.955444 471.822174,423.173431 
	C473.394714,413.750488 470.254211,406.489288 462.603302,400.687347 
	C459.972076,398.692017 458.082703,397.673645 454.680359,398.572723 
	C444.530365,401.254730 435.010559,394.623596 433.035126,383.936920 
	C431.368591,374.921326 438.324432,365.229156 447.546936,363.716278 
	C458.293823,361.953339 468.125580,368.680054 468.200867,379.329651 
	C468.248566,386.074829 471.147095,390.117310 475.513550,394.104919 
	C477.726715,396.126099 479.670624,398.451263 481.946686,400.392242 
	C485.147156,403.121582 486.234039,406.494232 486.141815,410.588959 
	C485.995544,417.085205 486.183655,423.588409 486.092346,430.086731 
	C486.051849,432.970551 487.052887,435.190338 489.153320,437.136871 
	C493.061432,440.758667 496.838623,444.521393 500.689209,448.205750 
	C501.743591,449.214600 502.695831,450.521606 504.517212,449.976349 
	C506.206451,448.358246 505.668335,446.239349 505.675507,444.310486 
	C505.732056,429.144592 505.612549,413.977020 505.806641,398.813293 
	C505.857605,394.833252 504.659576,391.947266 501.816010,389.148346 
	C480.081207,367.754883 458.446686,346.258972 436.883545,324.692383 
	C434.420044,322.228424 431.835571,321.322235 428.447937,321.362335 
	C405.955139,321.628571 383.460632,321.749054 360.967194,321.969452 
	C359.235535,321.986420 357.366241,321.608887 355.341675,323.022827 
	C359.820709,326.837250 364.127563,330.470154 368.391663,334.152588 
	C370.253815,335.760681 372.149048,335.709747 374.423492,335.006165 
	C381.396484,332.849091 387.713287,334.305145 392.772034,339.565552 
	C397.959442,344.959778 399.283722,351.471313 396.638062,358.507477 
	C395.701874,360.997314 396.067017,362.851013 397.441742,364.998657 
	C401.213348,370.890961 404.750275,376.932892 408.438934,382.879089 
	C413.309448,390.730560 413.244904,390.562805 405.214172,395.220673 
	C401.959564,397.108368 400.322754,396.579041 398.527802,393.390106 
	C394.606842,386.424011 390.334961,379.655914 386.239685,372.787079 
	C385.172852,370.997711 384.136810,369.806366 381.601776,369.857452 
	C369.338531,370.104645 361.842499,362.555603 362.314575,350.351074 
	C362.415253,347.748566 361.450775,346.275391 359.721497,344.871826 
	C353.123199,339.516418 346.511688,334.177307 339.911682,328.824005 
	C338.708832,327.848389 337.410614,326.738037 335.984924,328.195099 
	C328.339417,336.008789 320.759979,343.887115 312.604004,352.315277 
	C314.626709,354.141754 316.690247,356.051392 318.803253,357.904602 
	C325.891693,364.121582 331.667603,371.402252 336.248596,379.616882 
	C337.632904,382.099304 339.310944,383.355011 342.302185,383.985504 
	C349.574860,385.518341 354.482086,390.167023 356.008728,397.582916 
	C357.520935,404.928589 355.226990,411.248505 349.071411,415.613220 
	C343.223938,419.759399 336.799286,420.545135 330.207977,417.103851 
	C321.020569,412.307190 318.145233,401.493134 323.426086,391.748718 
	C324.326202,390.087738 325.862457,388.749298 324.393524,386.368378 
	C318.561890,376.916260 310.874023,369.179504 303.521820,362.326202 
	C296.798218,368.764648 290.392914,374.898285 283.953430,381.064667 
	C285.327576,383.620972 287.613525,385.358948 289.614899,387.330933 
	C295.312561,392.944794 300.996674,398.576172 306.832550,404.044403 
	C309.977875,406.991577 311.419556,410.337128 311.223389,414.683044 
	C310.975647,420.171783 311.237946,425.681396 311.128235,431.178955 
	C310.930176,441.104401 312.540314,439.748993 301.514801,441.206512 
	C298.363770,441.623016 296.817413,440.411011 296.879700,437.110046 
	C296.964630,432.612000 296.331726,428.028076 296.986664,423.626831 
	C298.855682,411.067261 288.238586,407.230408 281.846222,400.319214 
	C281.186615,402.234039 281.042877,403.871796 281.041962,405.509613 
	C281.027954,430.675079 281.023468,455.840515 281.038757,481.005981 
	C281.042969,487.923584 281.181274,488.058716 287.953369,488.062775 
	C309.785614,488.075836 331.618164,488.126404 353.449829,488.014709 
	C357.735626,487.992798 361.120667,489.157043 364.075806,492.392212 
	C368.117584,496.816986 372.520538,500.912292 376.776184,505.141235 
	C395.217468,523.467041 413.642578,541.809143 432.137299,560.080872 
	C433.778870,561.702637 435.048981,564.506165 438.261841,563.260193 
	C441.295197,562.083923 441.745422,559.576843 441.707062,556.727051 
	C441.691742,555.588928 441.971466,554.411621 442.305817,553.309509 
	C445.123199,544.022278 454.740479,538.791565 464.071106,541.431519 
	C473.684418,544.151428 479.273834,553.871765 476.614746,563.245911 
	C473.766876,573.285645 464.256958,578.550049 453.871857,575.911011 
	C452.225647,575.492737 450.678528,574.026978 448.379944,575.320007 
	C449.698212,578.373230 452.100647,580.518188 454.428741,582.469421 
	C458.915527,586.230042 460.287659,590.739502 460.216461,596.533936 
	C459.954407,617.862671 460.145935,639.197144 460.196320,660.529358 
	C460.200562,662.335327 459.654114,664.450317 460.989197,665.847717 
	C466.192200,671.293457 471.564758,676.577209 477.937164,682.991028 
	C477.937164,665.777832 477.832947,650.298401 477.998108,634.821838 
	C478.050385,629.925476 477.227325,626.187805 472.937561,622.767334 
	C466.089600,617.307007 465.420746,607.064514 470.381927,599.641296 
	C475.150848,592.505493 484.489319,589.934814 492.487274,593.555969 
	C504.678314,599.075684 506.581299,614.700989 496.037354,623.644653 
	C493.781769,625.557922 492.084534,627.226746 492.107880,630.566711 
	C492.253510,651.398193 492.180908,672.231201 492.184937,693.063660 
	C492.185272,694.734558 492.177856,696.401306 493.398468,697.777710 
	C496.898254,701.724365 500.377625,705.689209 503.865021,709.646851 
	C504.473602,709.251587 505.082184,708.856323 505.690765,708.461060 
	C505.690765,658.212708 505.690765,607.964417 505.688416,556.784973 
M445.975159,607.509766 
	C445.893829,600.166626 446.555634,593.423035 439.969788,587.104980 
	C411.982025,560.255493 384.696075,532.673401 357.233734,505.278748 
	C354.882935,502.933777 352.364227,502.194763 349.197632,502.211823 
	C333.046539,502.298920 316.894714,502.242828 300.743317,502.293549 
	C299.167664,502.298523 297.416321,501.775513 297.220459,502.025909 
	C309.463440,514.922546 321.706421,527.819214 334.494537,541.290161 
	C334.094635,539.920471 333.885284,539.317932 333.743256,538.699951 
	C331.207916,527.670715 337.233643,517.572449 347.379700,515.834717 
	C358.421448,513.943665 368.089294,520.577087 368.640717,532.141174 
	C368.957520,538.784973 372.309937,542.348206 376.286072,546.269775 
	C392.880920,562.636780 409.439270,579.041077 426.099762,595.341003 
	C429.046448,598.223938 430.431671,601.369080 430.303192,605.526367 
	C430.082092,612.679504 430.961548,619.934082 430.082947,626.984558 
	C428.533569,639.417969 438.848663,642.982971 444.657593,649.946777 
	C445.096680,649.760132 445.535736,649.573486 445.974792,649.386841 
	C445.974792,635.760071 445.974792,622.133362 445.975159,607.509766 
M519.337280,648.499939 
	C519.337280,668.332092 519.337280,688.164246 519.337280,707.996399 
	C520.051697,708.357971 520.766113,708.719482 521.480530,709.081055 
	C525.614319,704.558289 529.640808,699.930359 533.928711,695.558716 
	C535.966553,693.481140 536.747314,691.298645 536.734375,688.443359 
	C536.654297,670.783142 536.626282,653.121704 536.773071,635.462280 
	C536.799622,632.272278 535.782166,630.336426 533.178040,628.468445 
	C527.401550,624.324646 523.623352,618.505493 525.558411,611.349670 
	C527.242432,605.122070 524.220215,602.219543 519.337524,598.362244 
	C519.337524,615.344116 519.337524,631.421997 519.337280,648.499939 
M404.306854,593.192810 
	C390.410004,579.530640 376.516205,565.865356 362.611176,552.211487 
	C361.324890,550.948425 360.119629,549.274109 357.941132,550.144531 
	C353.547028,551.900269 349.004425,551.400940 343.236816,550.650146 
	C367.567261,574.491516 390.997894,597.451172 415.312347,621.276917 
	C416.437317,611.816956 417.663727,604.095886 409.767090,598.610657 
	C407.883087,597.301941 406.442505,595.354858 404.306854,593.192810 
M536.810242,400.500000 
	C536.810242,392.791290 536.810242,385.082550 536.810242,376.388641 
	C529.846313,381.313782 525.437927,386.976471 520.523682,392.101440 
	C519.288208,393.389893 519.370361,395.155731 519.371033,396.833527 
	C519.377014,411.975128 519.361755,427.116730 519.398926,442.258240 
	C519.403198,444.017609 519.052063,445.982574 521.484863,447.549683 
	C525.663086,444.630188 529.098511,440.594727 533.041931,437.153625 
	C535.774048,434.769501 536.932983,432.101990 536.856323,428.454071 
	C536.667603,419.473022 536.803467,410.485138 536.810242,400.500000 
M612.599854,432.291107 
	C615.043701,430.837616 616.736145,428.887909 616.209106,425.851562 
	C615.850220,423.783997 614.638611,422.148590 612.546997,421.532410 
	C610.418884,420.905518 608.194214,420.780212 606.531067,422.590637 
	C604.892456,424.374420 604.015625,426.453644 605.098938,428.940887 
	C606.420715,431.975616 608.740540,433.043610 612.599854,432.291107 
M479.424530,611.032471 
	C480.466797,614.353149 482.763031,616.042725 486.177704,615.489563 
	C488.613007,615.095032 490.406311,613.510132 490.671173,610.830444 
	C491.014526,607.357178 489.542877,604.783997 486.038116,604.314575 
	C481.816010,603.748962 479.475555,605.943909 479.424530,611.032471 
M385.679901,352.449921 
	C384.570160,347.304474 381.214752,345.046204 377.526001,347.024780 
	C375.081451,348.335938 373.963440,350.484589 374.394318,353.209167 
	C374.800110,355.775177 376.527161,357.319580 379.049896,357.675232 
	C382.503479,358.162140 384.779297,356.660034 385.679901,352.449921 
M628.179138,373.475616 
	C624.645691,371.650513 622.107849,372.862457 620.323425,376.128998 
	C618.780457,378.953278 619.725647,381.282684 622.039001,383.152191 
	C624.305847,384.984100 626.850891,384.915436 628.847778,382.992157 
	C631.842407,380.107971 631.822754,376.907410 628.179138,373.475616 
M613.118042,558.367065 
	C609.070557,561.348877 608.105652,564.452698 610.489441,567.307678 
	C612.216675,569.376282 614.418518,570.357422 617.061157,569.025757 
	C619.661499,567.715454 621.255981,565.606445 620.522827,562.628784 
	C619.703430,559.300537 617.331726,557.791199 613.118042,558.367065 
M546.648132,609.131042 
	C542.890808,606.736572 539.998108,607.710449 538.138977,611.573425 
	C536.363464,615.262634 538.320312,617.567505 541.501892,619.115112 
	C543.757446,620.212219 545.864990,619.443359 547.329956,617.710022 
	C549.541260,615.093689 549.330994,612.259155 546.648132,609.131042 
M338.473175,407.257507 
	C342.347565,406.698212 344.650146,404.645325 344.082672,400.556396 
	C343.669281,397.577759 341.496735,395.708008 338.589447,395.672302 
	C335.944061,395.639771 333.806061,397.177765 333.310272,400.063995 
	C332.685913,403.698944 333.963989,406.262177 338.473175,407.257507 
M321.755646,462.876892 
	C319.950562,461.752747 318.097443,461.358765 316.205658,462.636627 
	C313.144196,464.704620 312.166565,467.613617 314.050537,470.735809 
	C315.788605,473.616089 318.582397,474.477234 321.694427,472.465515 
	C325.098175,470.265198 325.273956,467.380676 321.755646,462.876892 
M452.759613,386.458008 
	C455.688477,384.875977 457.481964,382.639862 456.104889,379.211670 
	C455.018402,376.506866 452.804016,374.897308 449.812866,375.565521 
	C446.696960,376.261627 444.943939,378.489777 445.363037,381.761841 
	C445.848572,385.552307 448.268860,387.111877 452.759613,386.458008 
M356.592682,534.985657 
	C357.080719,532.027954 356.164520,529.775452 353.416870,528.323608 
	C351.598175,527.362671 349.904358,527.393738 348.276947,528.632263 
	C346.302155,530.135254 344.990326,532.054382 345.501617,534.632507 
	C345.960480,536.946411 347.556641,538.561768 349.810608,539.032593 
	C352.739288,539.644409 354.987213,538.370728 356.592682,534.985657 
M612.790955,494.427673 
	C611.710876,489.419189 608.574829,487.239807 605.041077,489.145325 
	C602.687744,490.414368 601.150757,492.460846 601.586853,495.192719 
	C601.975342,497.626465 603.574707,499.417542 606.199768,499.729248 
	C609.646729,500.138519 611.953125,498.710754 612.790955,494.427673 
M461.767853,553.612488 
	C458.985809,552.790466 456.433411,553.030029 454.704376,555.625183 
	C453.572723,557.323730 452.980865,559.209106 454.251953,561.209351 
	C455.488678,563.155518 457.181458,564.501648 459.489044,564.499695 
	C461.819550,564.497681 463.657104,563.239380 464.464355,561.015137 
	C465.460693,558.269958 465.014954,555.781555 461.767853,553.612488 
z"/>
<path fill="#000000" opacity="1.000000" stroke="none" 
	d="
M407.883606,458.116211 
	C417.198700,467.430481 426.322876,476.436951 435.285919,485.601074 
	C437.560669,487.926819 439.943787,488.990234 443.200806,488.890869 
	C449.355164,488.703094 455.529388,489.050446 461.675873,488.761444 
	C465.626160,488.575684 467.619080,489.979950 467.901367,493.901947 
	C468.032623,495.725037 468.151337,497.565521 468.506653,499.352173 
	C469.045349,502.061005 467.802490,503.062775 465.323853,503.064423 
	C455.501648,503.070923 445.679443,503.064697 435.857239,503.063843 
	C433.299347,503.063629 431.529022,501.573181 429.846771,499.903778 
	C412.239594,482.431091 394.699615,464.889679 376.963623,447.548737 
	C373.430481,444.094330 372.930847,440.099060 373.030457,435.711395 
	C373.101959,432.562714 372.455200,430.228333 369.460327,428.182953 
	C360.694458,422.196136 359.332611,410.049896 366.078125,401.775208 
	C372.255310,394.197693 384.656158,393.615082 392.021393,400.556427 
	C399.303680,407.419617 399.045624,419.725525 391.468231,426.935699 
	C385.472473,432.640900 385.434631,435.777008 391.337677,441.670898 
	C396.757080,447.081909 402.200226,452.469208 407.883606,458.116211 
M385.436707,412.762207 
	C384.457458,409.579315 382.449524,407.424500 378.989441,407.778168 
	C376.342621,408.048706 374.388458,409.691315 374.205658,412.657257 
	C374.025452,415.580811 374.909149,418.061310 378.046967,418.760925 
	C382.321167,419.713928 384.612793,417.517731 385.436707,412.762207 
z"/>
<path fill="#000000" opacity="1.000000" stroke="none" 
	d="
M461.540955,461.457825 
	C459.183746,459.079895 456.915741,457.086365 455.002289,454.796600 
	C450.611511,449.542297 446.137360,446.323395 438.252411,447.172272 
	C428.375824,448.235535 420.477631,439.055847 420.975830,429.367096 
	C421.502960,419.116425 430.427887,410.994965 440.235565,411.841309 
	C450.641418,412.739258 458.406494,422.097137 456.723846,432.217163 
	C456.203583,435.346283 457.239227,437.275757 459.217651,439.253937 
	C469.922424,449.957550 480.608551,460.679932 491.263977,471.432617 
	C492.625946,472.806976 494.435089,473.915283 494.799469,476.445862 
	C491.855713,478.371063 488.799042,480.292114 485.828094,482.337677 
	C483.425537,483.991913 482.195496,482.207031 480.803894,480.810791 
	C474.461731,474.447662 468.127960,468.076172 461.540955,461.457825 
M442.184204,425.182678 
	C439.358246,423.593933 436.722076,423.701843 434.742767,426.453552 
	C433.186737,428.616730 432.720306,431.059143 434.654480,433.310089 
	C436.750458,435.749268 439.426636,436.599335 442.116882,434.577881 
	C445.535919,432.008820 445.660736,428.852631 442.184204,425.182678 
z"/>
</svg>