<svg xmlns="http://www.w3.org/2000/svg" viewBox="0 0 1024 1024">
	<path
		d="M272 312.669c17.332-.008 34.164.081 50.994-.098 3.745-.04 5.606 1.1 6.837 4.777 17.757 53.039 35.651 106.032 53.533 159.029 8.779 26.019 17.676 51.998 26.319 78.062 1.27 3.832 3.456 4.607 7.038 4.597 33.33-.1 66.66-.02 99.99-.128 7.088-.023 14.276-.879 18.116 7.752l1.072-.858c1.242-6.933 2.572-13.85 3.712-20.8 5.247-31.978 10.443-63.965 15.65-95.949 1.095-6.723 2.071-13.468 3.272-20.172.781-4.364 3.756-6.85 8.036-6.794 4.256.056 7.069 2.61 8.004 6.929.141.651.38 1.285.474 1.941 4.115 28.631 8.138 57.276 12.35 85.893 3.339 22.696 6.929 45.355 10.366 68.037 2.832 18.69 5.603 37.39 8.746 56.086 3.282-11.925 5.053-24.078 7.137-36.168 2.116-12.282 4.1-24.588 6.265-36.862 1.06-6.004 4.569-8.95 10.7-9.152 4.33-.142 8.666-.009 12.998-.072 5.669-.084 8.99-2.758 9.016-8.311.021-4.634 2.011-5.6 6.07-5.489 7.493.204 14.999.148 22.495-.018 3.6-.08 4.971 1.234 5.107 4.922.265 7.244 2.28 8.94 9.553 8.942 24.83.009 49.661.001 74.492 0 1.333 0 2.67-.056 3.999.023 5.567.33 9.133 3.845 8.904 8.724-.223 4.769-3.607 7.806-9.106 7.843-11.831.079-23.664.032-35.496.03-16.498-.002-33.002-.264-49.492.113-6.3.144-10.461-2.105-13.638-7.264-1.346-2.186-2.551-4.725-5.452-5.673-2.53 1.576-3.805 4.177-5.196 6.56-2.489 4.269-5.942 6.58-10.938 6.589-4.33.008-8.662.248-12.99.181-3.615-.055-5.2 1.327-5.844 5.106-6.144 36.06-12.498 72.085-18.795 108.119-.716 4.095-1.382 8.2-2.202 12.275-1.002 4.985-4.236 8.028-8.357 7.703-4.689-.37-7.2-3.433-7.875-7.758-2.49-15.931-4.796-31.891-7.156-47.843-3.504-23.68-6.987-47.365-10.492-71.046-3.846-25.985-7.693-51.97-11.576-77.95-.638-4.265-1.467-8.502-2.992-12.879-1.429 8.293-2.946 16.57-4.27 24.88a19913.084 19913.084 0 00-12.023 76.387c-.611 3.931-2.063 7.193-6.18 8.175-4.491 1.073-7.73-1.142-10.05-4.844-3.452-5.505-7.027-10.944-10.196-16.608-1.79-3.2-4.044-4.443-7.644-4.252-4.654.247-9.34.262-13.993.01-3.955-.214-5.927 1.25-7.22 5.108-12.109 36.147-24.403 72.233-36.656 108.332-2.354 6.936-4.81 13.838-7.114 20.79-.858 2.587-2.382 3.672-5.15 3.664-20.331-.051-40.663-.068-60.993.08-3.747.027-4.708-2.163-5.69-5.022a59026.066 59026.066 0 00-36.63-106.235c-32.485-93.938-64.99-187.87-97.472-281.81-.748-2.161-1.912-4.247-1.68-7.604H272z" />
	<path
		d="M564.558 372.44c-13.665 40.436-27.2 80.499-40.726 120.564-5.325 15.772-10.69 31.53-15.898 47.34-1.032 3.131-2.576 4.562-6.05 4.551-23.484-.069-46.97.043-70.454.082-1.972.003-4.004.307-5.82-.757-1.099-1.79.063-3.283.557-4.774C450.62 465.653 475.13 391.88 499.5 318.061c1.287-3.9 2.934-5.526 7.274-5.487 23.827.209 47.657.075 71.486.09 1.8.002 3.68-.33 6.148 1.164-6.531 19.293-13.124 38.766-19.85 58.612zM652.536 513.575c-.003-3.436.021-6.426.028-9.416.015-7.028.011-7.052 7.256-7.083 7.156-.03 14.312.03 21.468-.02 3.485-.025 5.104 1.337 5.02 5.07-.186 8.316-.165 16.642-.016 24.961.061 3.441-1.326 4.85-4.68 4.805-8.152-.108-16.305-.154-24.458-.155-3.255 0-4.777-1.185-4.56-4.74.261-4.308-.003-8.649-.058-13.422z" />
</svg>