<svg xmlns="http://www.w3.org/2000/svg" viewBox="0 0 800 800">
	<path
		d="M338.18 356.738c-9.098-19.448-18.024-38.563-26.823-57.408.725-.817.93-1.257 1.148-1.263 12.623-.364 25.317-1.342 37.747 1.613 9.048 2.151 15.65 7.391 19.525 16.293 5.45 12.518 11.536 24.758 17.378 37.104.976 2.063 2.092 4.06 3.431 6.641 2.66-3.622 3.076-7.28 4.058-10.689 2.116-7.348 4.1-14.733 6.173-22.094.763-2.706 2.012-5.285 5.313-4.937 2.943.31 3.759 2.79 4.196 5.446 4.91 29.793 9.838 59.584 14.85 89.36.52 3.096-.734 5.175-2.927 6.907-2.67 2.108-3.358 4.826-2.821 8.008 2.262 13.417 4.569 26.826 6.767 40.253.43 2.628.976 5.31 4.054 5.416 3.196.11 3.702-2.877 4.35-5.267 4.09-15.079 8.276-30.135 12.117-45.278 1.185-4.67 3.289-6.554 8.274-6.286 7.9.425 15.84.113 23.327.113 1.016 2.092.309 3.117-.16 4.155-12.002 26.558-24.181 53.038-35.906 79.717-2.847 6.48-6.833 9.23-13.76 8.612-4.961-.442-9.975.077-14.967-.582-2.617-.345-4.23-1.395-5.344-3.75a17141.129 17141.129 0 00-28.758-60.452c-.93-1.943-.981-3.898-.478-5.838 5.39-20.744 10.83-41.475 16.278-62.203.203-.775.622-1.494 1.257-2.98 7.11 12.653 11.656 25.879 19.437 39.183l-11.063-68.456-.759-.12c-1.352 4.991-2.803 9.958-4.023 14.98-.877 3.61-2.604 6.542-5.978 8.157-4.225 2.024-5.617 5.653-6.689 9.876-3.884 15.297-8.005 30.533-12.065 45.785-.335 1.259-.884 2.46-1.93 5.317-12.077-25.838-23.566-50.42-35.228-75.333z" />
	<path
		d="M499.821 299.639c12.586-2.976 24.46-7.219 36.649-9.32 1.26 2.52.098 3.967-.55 5.421a37404.2 37404.2 0 01-33.974 76.164c-5.505 12.302-11.18 24.53-16.572 36.88-1.478 3.386-3.486 4.704-7.205 4.616-9.49-.224-18.995.139-28.482-.148-4.812-.146-7.294 1.505-8.5 6.264-2.652 10.462-5.739 20.813-8.66 31.206-.213.76-.122 1.701-1.388 2.22-2.116-7.362-2.954-14.914-3.96-22.414-.175-1.312.822-2.831 1.42-4.192 16.8-38.253 33.688-76.469 50.352-114.782 2.141-4.924 5.32-7.777 10.392-8.98 3.395-.804 6.722-1.891 10.478-2.935zM375.138 455.226c-4.57 2.816-6.165 2.268-8.535-2.604-7.068-14.527-14.1-29.07-21.208-43.578-.86-1.757-1.412-3.764-3.74-5.483-2.464 4.535-5.088 8.871-7.22 13.437-1.812 3.882-4.633 5.317-8.713 5.29-10.498-.067-20.998.06-31.495-.03-3-.025-5.208.564-7.279 3.168-4.767 5.995-12.89 6.52-18.098 1.649-5.378-5.03-5.516-13.316-.304-18.276 5.136-4.887 13.479-4.524 18.273 1.141 1.797 2.124 3.586 3.17 6.321 3.145 9.831-.085 19.665-.12 29.495-.012 3.11.035 4.917-1.286 6.206-3.996 2.719-5.716 5.64-11.336 8.402-17.032.987-2.035 2.084-3.927 4.568-4.105 2.578-.183 3.841 1.676 4.83 3.684 9.424 19.12 19.215 38.062 27.906 57.537.809 1.812 1.74 3.651.59 6.065z" />
</svg>